<?xml version="1.0" standalone="no"?><!DOCTYPE svg PUBLIC "-//W3C//DTD SVG 1.1//EN" "http://www.w3.org/Graphics/SVG/1.1/DTD/svg11.dtd"><svg t="1614004885621" class="icon" viewBox="0 0 1024 1024" version="1.1" xmlns="http://www.w3.org/2000/svg" p-id="5176" xmlns:xlink="http://www.w3.org/1999/xlink" width="200" height="200"><defs><style type="text/css"></style></defs><path d="M944.256 728.3456c0.06656-0.82944 0.28672-1.536 0.28672-2.40128 0-34.14528-41.14944-47.96928-74.27072-47.96928-80.64 0-67.55328 27.42272-121.728 27.42272s-68.25472-27.42272-121.728-27.42272c-53.47328 0-67.55328 27.42272-121.728 27.42272s-41.088-27.42272-121.75872-27.42272c-33.09056 0-74.27072 13.824-74.27072 47.96928 0 0.896 0.22528 1.56672 0.28672 2.40128-16.60928 10.91072-30.36672 31.872-30.36672 72.576 0 24.47872 4.19328 49.63328 12.73344 71.64928H177.76128L107.23328 265.14944H461.312l-10.33728 114.816c-39.936 13.37344-70.68672 29.88544-92.8 45.12256-56.99072 39.22944-92.416 92.8-92.416 139.84256 0 43.648 29.88544 72.92928 74.39872 72.92928h573.28128c44.51328 0 74.39872-29.312 74.39872-72.92928 0-47.00672-35.38944-100.608-92.38528-139.84256-47.39072-32.67072-132.51072-71.58272-268.64128-71.58272-41.82528 0-78.30528 3.968-110.87872 9.984l14.40256-161.63328H420.38272c3.26656-18.75456 8.064-46.65856 11.03872-64.512 1.98144-11.93472 8.67328-23.96672 19.2-23.96672h236.672V50.08384H450.62144c-41.15456 0-73.984 30.87872-81.63328 76.83072-3.61472 21.632-9.95328 58.17856-12.86144 74.94656h-320l85.248 733.98272h230.97344v-0.768c7.10656 2.048 14.72 3.16928 22.94272 3.16928h503.07072c66.14528 0 96.256-71.168 96.256-137.31328 0-40.704-13.76256-61.66528-30.36672-72.576z m-82.88256-253.76256c45.85472 31.58528 66.37056 68.096 66.37056 90.33728 0 9.02656-1.98656 12.8-14.27456 12.8H340.15744c-12.288 0-14.27456-3.77344-14.27456-12.8 0-22.20544 20.51072-58.752 66.36544-90.33728 40.38656-27.80672 113.88928-60.99456 234.55744-60.99456s194.14528 33.18272 234.56256 60.99456z m16.99328 403.48672H375.296c-24.64256 0-36.12672-46.04928-36.12672-77.15328 0-15.90272 2.816-21.57056 3.65056-22.912 0.64-0.22528 2.40128-0.64 5.98528-0.64h556.032c3.68128 0 5.40672 0.45056 5.98528 0.64 0.73728 1.152 3.68128 6.75328 3.68128 22.912 0 31.104-11.48928 77.15328-36.12672 77.15328z" p-id="5177"></path></svg>