<?xml version="1.0" standalone="no"?><!DOCTYPE svg PUBLIC "-//W3C//DTD SVG 1.1//EN" "http://www.w3.org/Graphics/SVG/1.1/DTD/svg11.dtd"><svg t="1614072289864" class="icon" viewBox="0 0 1024 1024" version="1.1" xmlns="http://www.w3.org/2000/svg" p-id="2868" xmlns:xlink="http://www.w3.org/1999/xlink" width="200" height="200"><defs><style type="text/css"></style></defs><path d="M667.837254 254.759241c22.916942 40.689724 79.869049 64.984037 152.34471 64.98813l0.017396 0c57.775868 0 109.642143-15.754822 138.740878-42.144866 5.500271-4.989641 6.987135-13.041014 3.629667-19.664875-0.938372-1.851161-23.36822-45.852304-57.211003-90.537016-45.644573-60.268642-89.333608-91.984994-129.952724-94.402043 23.772426-16.398482 51.90209-26.145473 85.065398-24.464181 9.113565 0.487094 16.839527-6.537903 17.297968-15.629979 0.460488-9.094122-6.53688-16.838503-15.629979-17.298991C784.146237 11.633968 718.39779 57.775868 671.988808 148.978033c-21.608134 42.466184-34.145681 84.891436-40.519856 110.735034-17.939581-7.158027-37.500079-11.096732-57.966203-11.096732-26.307156 0-51.103912 6.53688-72.903403 18.022469-20.927635-62.099337-79.675644-106.963127-148.741649-106.963127-86.544075 0-156.952658 70.40756-156.952658 156.951635 0 46.811142 20.623713 88.871073 53.231365 117.652584-15.22475 24.176632-24.072255 52.755528-24.072255 83.375919 0 11.828396 1.357927 23.338544 3.849678 34.424021-37.703717 28.694529-62.101383 74.013691-62.101383 124.94057 0 19.74367 3.699252 38.630832 10.384511 56.050574-22.582321 27.192316-36.183084 62.096267-36.183084 100.123348 0 86.544075 70.40756 156.952658 156.952658 156.952658 58.989509 0 110.458741-32.726356 137.26834-80.962963 21.895683 11.615549 46.834678 18.225083 73.299423 18.225083 86.543052 0 156.951635-70.40756 156.951635-156.952658 0-10.722202-1.086751-21.194718-3.14462-31.317263 21.276582-11.582803 39.558971-27.972075 53.461609-47.662533 16.631796 6.016017 34.55398 9.311063 53.235458 9.311063 86.543052 0 156.951635-70.408583 156.951635-156.952658 0-86.543052-70.40756-156.951635-156.951635-156.951635-13.187347 0-25.993001 1.654686-38.237883 4.731768-4.260024-48.105624-30.319539-90.023316-68.194148-115.831099 1.370207-5.916756 3.225461-13.396101 5.652743-22.089088C667.453515 254.051113 667.641803 254.413364 667.837254 254.759241zM710.050682 151.105486c18.215874-30.05962 38.521339-45.302789 60.350506-45.302789 53.06559 0 114.647133 82.520435 146.512888 137.787156 9.035794 15.672958 14.530948 17.871019-6.710842 26.118867-24.629957 9.564843-56.458873 17.066701-90.004897 17.065677l-0.013303 0c-58.607816-0.002047-107.129926-18.919908-123.617435-48.195675C683.930791 216.144782 688.468131 186.715519 710.050682 151.105486zM232.273111 316.628334c0-65.937758 53.644781-119.582539 119.583562-119.582539 56.517201 0 103.968933 39.423895 116.384707 92.207052 2.069125 8.798387 3.198855 17.954931 3.198855 27.375487 0 13.693884-2.344395 26.842345-6.601348 39.104623-1.606591 3.490497-3.050476 7.070023-4.321422 10.730389-1.949398 4.234441-4.113691 8.349155-6.526647 12.300141-6.768147 11.084453-15.300474 20.971637-25.185612 29.303396-3.746324 3.157923-7.691169 6.081509-11.80793 8.766664-18.757203 12.234649-41.125653 19.378349-65.141626 19.378349-16.984836 0-33.142841-3.582595-47.789423-9.994632-11.945053-5.229095-22.887266-12.33698-32.422434-20.976754C247.478418 383.345852 232.273111 351.729783 232.273111 316.628334zM431.570179 625.994264c-0.187265 0.088004-0.3776 0.169869-0.565888 0.257873-15.22168 7.034207-32.147164 10.989285-49.987484 10.989285-47.792493 0-89.107457-28.193109-108.238167-68.811202-5.294586-11.242042-8.873088-23.435759-10.432607-36.247552-0.580215-4.765537-0.913812-9.605775-0.913812-14.525831 0-22.73991 6.383384-44.01547 17.448394-62.135152 21.817911 11.509125 46.64025 18.059308 72.975035 18.059308 26.306132 0 51.102888-6.53688 72.90238-18.023492 7.068999 20.976754 18.425651 39.993876 33.072233 55.968709-11.322883 16.205077-19.652596 34.628682-24.218588 54.487985-2.601244 11.314697-4.022617 23.077601-4.022617 35.171034C429.591105 609.628528 430.280814 617.910145 431.570179 625.994264zM241.49617 589.406974c26.099425 50.544163 78.822207 85.202521 139.520637 85.202521 0.808412 0 1.603521-0.049119 2.408863-0.061398 20.522406-0.312108 40.104393-4.551666 58.010205-12.04943 0.317225 2.612501 0.575098 5.243421 0.721431 7.90504 0.119727 2.191922 0.192382 4.396123 0.192382 6.617721 0 23.474644-6.826476 45.372374-18.557658 63.86454-6.932899 10.926864-15.569604 20.665669-25.561166 28.817326-3.225461 2.63092-6.598278 5.085832-10.087753 7.373944-10.882861 7.135514-22.981411 12.559037-35.927257 15.851013-9.42465 2.39556-19.289322 3.677762-29.449729 3.677762-42.621726 0-80.08292-22.430872-101.264335-56.091506-6.791683-10.793834-11.902074-22.737864-14.973016-35.475979-2.167363-8.993838-3.346211-18.367323-3.346211-28.0171C203.182562 642.442888 217.951941 611.260701 241.49617 589.406974zM296.967552 952.779935c-65.938782 0-119.584586-53.644781-119.584586-119.583562 0-23.474644 6.826476-45.37135 18.557658-63.863517 28.569686 39.142485 74.764797 64.642253 126.8255 64.642253 13.528108 0 26.66122-1.720178 39.193651-4.954849 9.146311 22.654976 23.415292 42.697451 41.388643 58.68661C383.491161 926.302911 343.276251 952.779935 296.967552 952.779935zM507.534292 890.042055c-21.499663 0-41.673122-5.731538-59.125609-15.703657-12.4608-7.121188-23.532973-16.398482-32.679283-27.351951-7.861038-9.414417-14.289448-20.057825-18.983353-31.587416 5.711072-3.065825 11.19497-6.494924 16.45681-10.218736 11.292184-7.993045 21.506826-17.410532 30.330796-28.034497 15.399735-18.543332 26.581402-40.687678 32.160467-64.951291 28.414143 28.373211 67.617004 45.944402 110.848621 45.944402 13.56904 0 26.740014-1.733481 39.306214-4.986571 0.823761 5.652743 1.2689 11.42726 1.2689 17.306154C627.117854 836.397275 573.473073 890.042055 507.534292 890.042055zM649.214105 702.978613c-10.546194 6.516414-22.178115 11.426237-34.552957 14.421454-9.023514 2.183735-18.431791 3.370771-28.117384 3.370771-46.888913 0-87.540775-27.140127-107.126856-66.525136-0.740874-1.489934-1.444908-2.99931-2.124384-4.52506-0.913812-2.047636-1.777483-4.120854-2.576685-6.226818-3.024893-7.966439-5.225001-16.330944-6.486738-25.000394 0.037862-0.010233 0.075725-0.022513 0.112564-0.031722-0.058328-0.146333-0.113587-0.294712-0.172939-0.440022-0.778736-5.504364-1.208525-11.119245-1.208525-16.835434 0-0.172939 0.011256-0.343831 0.01228-0.51677 0.102331-23.827685 7.222495-46.01808 19.378349-64.642253 3.726881 2.496867 7.570419 4.834098 11.513218 7.011694 10.956539 6.053879 22.710234 10.825556 35.059494 14.134929 12.950963 3.470031 26.548656 5.348821 40.579207 5.348821 13.186324 0 25.990954-1.654686 38.236859-4.732791 4.301979 48.570205 30.79333 90.850148 69.273736 116.587322C672.220075 685.700087 661.452847 695.414333 649.214105 702.978613zM728.353536 431.051363c12.42703-4.38589 25.77606-6.7968 39.684838-6.7968 65.937758 0 119.582539 53.644781 119.582539 119.582539 0 65.938782-53.644781 119.584586-119.582539 119.584586-12.273535 0-24.11728-1.864464-35.272341-5.314029-12.156878-3.76065-23.474644-9.434883-33.642215-16.630772-30.621415-21.677719-50.67003-57.350173-50.67003-97.638761 0-0.137123 0.010233-0.271176 0.010233-0.409322 10.32516-5.636371 19.927865-12.423961 28.688389-20.146852 9.425673-8.31027 17.845437-17.726733 25.059745-28.052916C715.357548 476.416574 724.489532 454.615035 728.353536 431.051363zM693.086311 405.568992c0 0.137123-0.010233 0.272199-0.010233 0.409322-0.078795 23.305799-6.875594 45.046962-18.526959 63.425541-0.329505 0.411369-0.655939 0.827855-0.979304 1.24434-2.336208 3.00852-4.530177 6.129604-6.576789 9.357112-5.533017 6.934946-11.813047 13.241582-18.72855 18.797112-10.412141 8.366551-22.243607 15.024182-35.077913 19.554358-12.42703 4.384867-25.775037 6.795776-39.683814 6.795776-12.388145 0-24.341385-1.89414-35.586496-5.40715-9.241478-2.885723-18.003026-6.869455-26.13524-11.791557-4.406356-2.665713-8.610098-5.627161-12.621459-8.822946-5.903453-4.699022-11.348466-9.942443-16.268522-15.656585-12.320607-14.309914-21.309328-31.5516-25.77299-50.529837 1.399883-1.2689 2.756787-2.583848 4.110621-3.900843 8.93551-8.696056 16.833387-18.439978 23.50739-29.039383 15.225773-24.177656 24.072255-52.755528 24.072255-83.376942 0-3.792373-0.183172-7.538697-0.449231-11.264555 18.757203-12.235672 41.125653-19.379373 65.142649-19.379373C639.440507 285.98543 693.086311 339.631234 693.086311 405.568992z" p-id="2869"></path></svg>