<?xml version="1.0" standalone="no"?><!DOCTYPE svg PUBLIC "-//W3C//DTD SVG 1.1//EN" "http://www.w3.org/Graphics/SVG/1.1/DTD/svg11.dtd"><svg t="1612538023545" class="icon" viewBox="0 0 1024 1024" version="1.1" xmlns="http://www.w3.org/2000/svg" p-id="4772" xmlns:xlink="http://www.w3.org/1999/xlink" width="200" height="200"><defs><style type="text/css"></style></defs><path d="M787.62 180.268a109.259 109.259 0 0 0-76.63-33.742 123.596 123.596 0 0 0-82.81 36.337c-12.112 11.99-354.968 353.856-354.968 353.856a22.247 22.247 0 0 0-5.685 9.764c-9.27 34.36-55.866 186.63-56.237 188.237a22 22 0 0 0 5.439 22 21.506 21.506 0 0 0 15.326 6.304 22.37 22.37 0 0 0 6.674-0.989c1.607 0 158.82-51.416 184.653-59.079a21.753 21.753 0 0 0 9.022-5.315C448.72 681.574 763.89 371.348 789.35 344.898s39.55-55.371 39.056-83.675a115.562 115.562 0 0 0-40.786-80.955zM752.27 309.426c-14.337 14.831-127.057 126.192-334.946 330.99l-16.562 15.574c-23.854 7.415-80.955 25.708-123.596 39.674 13.843-45.854 30.528-101.225 37.944-127.428 44.618-43.876 338.407-337.665 349.53-348.665a74.158 74.158 0 0 1 46.349-21.258 58.955 58.955 0 0 1 40.787 19.28 66.866 66.866 0 0 1 24.719 44.496 70.45 70.45 0 0 1-24.225 47.337z m62.663 567.924H168.155a26.944 26.944 0 1 1 0-53.888h646.78a26.944 26.944 0 0 1 0 53.888z m-7.168-174.27h-182.8a20.27 20.27 0 0 1 0-40.416h182.8a20.27 20.27 0 0 1 0 40.416z m-91.338 91.337a20.27 20.27 0 0 1-20.27-20.27V591.473a20.27 20.27 0 1 1 40.416 0v182.8a20.27 20.27 0 0 1-20.146 20.145z" p-id="4773" fill="#707070"></path></svg>