<?xml version="1.0" standalone="no"?><!DOCTYPE svg PUBLIC "-//W3C//DTD SVG 1.1//EN" "http://www.w3.org/Graphics/SVG/1.1/DTD/svg11.dtd"><svg t="1613983633069" class="icon" viewBox="0 0 1024 1024" version="1.1" xmlns="http://www.w3.org/2000/svg" p-id="2134" xmlns:xlink="http://www.w3.org/1999/xlink" width="200" height="200"><defs><style type="text/css"></style></defs><path d="M859.4 405.82161458h-11.73603516c-3.92431641-11.73603516-3.92431641-10.58466797-7.81171875-22.32070312-3.96035156-15.69550781-43.09277344-101.80722656-74.41259765-140.9756836-43.09189453-50.90361328-125.31533203-85.64414063-254.51982422-85.64414062-133.12792969 0-215.35224609 34.74052734-254.51982422 85.64414062-35.27929688 39.16845703-70.5234375 125.27929688-74.41171875 140.9765625-3.92431641 11.73515625-7.84863281 14.47119141-7.84863281 22.31982422h-11.73603516c-66.56396484 0-82.2234375 48.16757812-82.2234375 79.48828125 0 11.77119141 11.73603516 23.50722656 23.50810547 27.39550781l64.97929687 7.81171875C156.93242188 579.26936849 134.46757812 649.75764974 134.46757812 716.32161458v82.2234375c0 15.66035156 11.73603516 40.89550781 27.39638672 40.89550781h63.79189453c15.66035156 0 27.39550781-25.23515625 27.39550782-40.89550781v-31.35585937h528.04863281v27.39550781c0 15.66035156 11.73603516 45.39638672 27.39550781 45.39638672h53.71259766c15.65947266 0 27.39550781-29.73603516 27.39550781-45.39550782v-82.2243164c0-66.56396484-22.46396484-137.05224609-34.2-195.80361328l62.74863281-7.81259766c11.73603516 0 23.50810547-11.73603516 23.50810547-27.39550781-0.03603516-27.39550781-15.69638672-75.52792969-82.26035156-75.52792969zM240.77568359 663.18557942c-20.1234375 0-40.28378906-16.12792969-40.28378906-40.24863281 0-20.1234375 16.09277344-40.28378906 40.28378906-40.28378906 20.12431641 0 40.28466797 16.12792969 40.28466797 40.28378906 0 24.12070313-16.12792969 40.24863281-40.28466797 40.24863281z m-27.46757812-186.3c27.39550781-129.24052734 66.56396484-179.56845703 82.2243164-195.19189453 23.50722656-27.39638672 78.3-54.82792969 215.35136719-54.82792968 137.05224609 0 191.88017578 27.39550781 215.38828125 54.82792968 15.66035156 15.65947266 54.82792969 65.98828125 82.22431641 195.19189453-58.75224609 23.50810547-160.56035156 72.3234375-297.61259766 72.3234375-137.05136719 0-238.86035156-48.85136719-297.57568359-72.3234375z m567.14414062 185.21982422c-19.58466797 0-39.16845703-15.66035156-39.16845703-39.16845703 0-19.58378906 15.66035156-39.16757813 39.16845703-39.16757812 19.58378906 0 39.16757813 15.66035156 39.16757813 39.16757812 0 23.47207031-19.58378906 39.16845703-39.16757813 39.16845703z" p-id="2135"></path></svg>