<?xml version="1.0" standalone="no"?><!DOCTYPE svg PUBLIC "-//W3C//DTD SVG 1.1//EN" "http://www.w3.org/Graphics/SVG/1.1/DTD/svg11.dtd"><svg t="1613983717646" class="icon" viewBox="0 0 1024 1024" version="1.1" xmlns="http://www.w3.org/2000/svg" p-id="3713" xmlns:xlink="http://www.w3.org/1999/xlink" width="200" height="200"><defs><style type="text/css"></style></defs><path d="M819.712 257.536H670.72V149.504c0-22.528-18.432-40.448-40.448-40.448H386.56c-22.528 0-40.448 18.432-40.448 40.448v108.032h-148.48c-45.056 0-81.408 36.352-81.408 81.408v13.312h784.384v-13.312c0-45.056-36.352-81.408-80.896-81.408z m-229.888 0H427.52V189.952h162.304v67.584zM116.224 812.032c0 45.056 36.352 81.408 81.408 81.408h622.08c45.056 0 81.408-36.352 81.408-81.408v-378.88H116.224v378.88z m284.16-189.44h67.584v-67.584c0-22.528 18.432-40.448 40.448-40.448 22.528 0 40.448 18.432 40.448 40.448v67.584h67.584c22.528 0 40.448 18.432 40.448 40.448 0 22.528-18.432 40.448-40.448 40.448h-67.584v67.584c0 22.528-18.432 40.448-40.448 40.448s-40.448-18.432-40.448-40.448v-67.584H400.384c-22.528 0-40.448-18.432-40.448-40.448 0-22.016 17.92-40.448 40.448-40.448z" p-id="3714"></path></svg>