<?xml version="1.0" standalone="no"?><!DOCTYPE svg PUBLIC "-//W3C//DTD SVG 1.1//EN" "http://www.w3.org/Graphics/SVG/1.1/DTD/svg11.dtd"><svg t="1613986117245" class="icon" viewBox="0 0 1024 1024" version="1.1" xmlns="http://www.w3.org/2000/svg" p-id="18353" xmlns:xlink="http://www.w3.org/1999/xlink" width="200" height="200"><defs><style type="text/css"></style></defs><path d="M722.6 319.3l-2.8-0.5H188.1L351.2 192c14.5-11.3 17.1-32.2 5.8-46.7s-32.2-17.1-46.7-5.8l-225.2 175c-20.3 15.8-23.9 45.1-8.2 65.3 3.1 4 6.8 7.4 11 10.3l224.4 149.6c5.7 3.8 12.1 5.6 18.4 5.6 10.8 0 21.3-5.2 27.7-14.8 10.2-15.3 6.1-36-9.2-46.2L201 385.5h513.2c120.1 21.1 176 91 176 219.8s-56 198.7-176 219.8H124.3c-18.4 0-33.3 14.9-33.3 33.3s14.9 33.3 33.3 33.3h595.6l2.8-0.5c153.2-25.8 234.2-124.7 234.2-285.9s-81-260.1-234.3-286z" p-id="18354"></path></svg>