<?xml version="1.0" standalone="no"?><!DOCTYPE svg PUBLIC "-//W3C//DTD SVG 1.1//EN" "http://www.w3.org/Graphics/SVG/1.1/DTD/svg11.dtd"><svg t="1614072651799" class="icon" viewBox="0 0 1024 1024" version="1.1" xmlns="http://www.w3.org/2000/svg" p-id="3756" xmlns:xlink="http://www.w3.org/1999/xlink" width="200" height="200"><defs><style type="text/css"></style></defs><path d="M693.82475445 837.14h-399a113.04 113.04 0 0 1-112.91999999-112.92V325.31a113.04 113.04 0 0 1 112.91999999-112.92h269.16v26.34H294.82475445a86.7 86.7 0 0 0-86.57999999 86.58v398.94a86.7 86.7 0 0 0 86.57999999 86.58h399.00000001a86.64 86.64 0 0 0 86.58-86.58v-231.12h26.33999999v231.12a113.04 113.04 0 0 1-112.91999999 112.89m131.58-576.42zM395.62475445 627.95l50.55-176.28 232.77-230.79 21.48-21.36c16.56-16.38 44.64-16.98 60.45-1.29l67.53000001 67.11c7.65 7.59 11.85 17.82 11.87999999 28.83 0 11.58-4.83 23.04-13.22999998 31.44l-41.19 40.83-0.03-0.03-213.00000001 211.68-177.21 49.86m73.95-162.42l-35.61000001 124.26 125.19000001-35.22 225.53999998-224.19 0.06000002 0.06 23.73-23.52a18.24 18.24 0 0 0 5.48999999-12.75 14.22 14.22 0 0 0-4.11-10.17l-67.52999999-67.11c-5.79-5.76-16.83-5.16-23.33999999 1.29l-40.02000003 39.81-0.02999999-0.03-209.36999999 207.57" p-id="3757" fill="#707070"></path></svg>