<?xml version="1.0" standalone="no"?><!DOCTYPE svg PUBLIC "-//W3C//DTD SVG 1.1//EN" "http://www.w3.org/Graphics/SVG/1.1/DTD/svg11.dtd"><svg t="1615051299796" class="icon" viewBox="0 0 1024 1024" version="1.1" xmlns="http://www.w3.org/2000/svg" p-id="2482" xmlns:xlink="http://www.w3.org/1999/xlink" width="200" height="200"><defs><style type="text/css"></style></defs><path d="M588.477425 304.736019a51.5072 25.4976 39.433 1 0 32.3909-39.387054 51.5072 25.4976 39.433 1 0-32.3909 39.387054Z" fill="#8a8a8a" p-id="2483"></path><path d="M620.8512 312.5248c-3.3792 0-6.8608-1.1264-9.728-3.4816-6.5536-5.4272-7.4752-15.0528-2.1504-21.6064l94.6176-115.3024-7.0656-5.8368-96.6656 117.76c-5.4272 6.5536-15.0528 7.4752-21.6064 2.1504-6.5536-5.4272-7.4752-15.0528-2.1504-21.6064l106.3936-129.6384a15.3088 15.3088 0 0 1 21.6064-2.048l30.8224 25.3952c6.5536 5.4272 7.4752 15.0528 2.1504 21.6064l-104.3456 126.976c-3.072 3.7888-7.4752 5.632-11.8784 5.632zM634.6752 897.3312h-243.712c-30.4128 0-55.0912-20.48-57.4464-47.5136l-35.0208-404.48c-0.4096-4.3008 1.024-8.4992 3.9936-11.6736 2.8672-3.1744 7.0656-5.0176 11.3664-5.0176h398.1312c4.3008 0 8.3968 1.8432 11.3664 5.0176 2.8672 3.1744 4.3008 7.3728 3.9936 11.6736l-35.0208 404.48c-2.56 26.624-27.7504 47.5136-57.6512 47.5136zM330.4448 459.264l33.5872 387.7888c0.9216 10.9568 12.8 19.456 26.8288 19.456h243.712c14.1312 0 25.9072-8.6016 26.8288-19.456l33.5872-387.7888h-364.544z" fill="#8a8a8a" p-id="2484"></path><path d="M745.472 459.264H279.9616c-21.2992 0-38.6048-17.3056-38.6048-38.6048v-6.656c0-21.2992 17.3056-38.6048 38.6048-38.6048H745.472c21.2992 0 38.6048 17.3056 38.6048 38.6048v6.656c0 21.2992-17.3056 38.6048-38.6048 38.6048z m-465.5104-53.0432c-4.3008 0-7.8848 3.584-7.8848 7.8848v6.656c0 4.3008 3.584 7.8848 7.8848 7.8848H745.472c4.3008 0 7.8848-3.584 7.8848-7.8848v-6.656a7.8848 7.8848 0 0 0-7.8848-7.8848H279.9616z" fill="#8a8a8a" p-id="2485"></path><path d="M711.8848 398.848c-8.0896 0-14.9504-6.3488-15.36-14.6432-2.1504-44.544-20.5824-86.7328-51.8144-118.784-5.9392-6.0416-5.8368-15.7696 0.3072-21.7088 6.0416-5.9392 15.7696-5.8368 21.7088 0.3072 36.4544 37.376 57.9584 86.7328 60.5184 138.752a15.36 15.36 0 0 1-14.6432 16.0768h-0.7168zM313.6512 398.848h-0.7168a15.36 15.36 0 0 1-14.6432-16.0768c5.5296-114.176 99.6352-203.5712 214.4256-203.5712 43.2128 0 84.8896 12.8 120.5248 36.864 7.0656 4.7104 8.9088 14.336 4.096 21.2992-4.7104 7.0656-14.336 8.9088-21.2992 4.096a183.35744 183.35744 0 0 0-103.3216-31.5392c-98.304 0-178.9952 76.5952-183.7056 174.3872-0.4096 8.192-7.168 14.5408-15.36 14.5408zM666.112 586.1376c-8.4992 0-17.1008-2.8672-24.2688-8.4992l-20.0704-15.872c-0.4096-0.4096-0.9216-0.7168-1.3312-1.1264a6.30784 6.30784 0 0 0-8.9088 0c-0.4096 0.4096-0.8192 0.8192-1.2288 1.1264l-19.456 15.7696a38.8096 38.8096 0 0 1-48.64 0l-19.6608-15.6672c-0.4096-0.3072-0.8192-0.7168-1.2288-1.1264a6.18496 6.18496 0 0 0-8.8064 0c-0.4096 0.4096-0.8192 0.8192-1.2288 1.1264l-19.6608 15.6672a38.68672 38.68672 0 0 1-48.64 0l-19.6608-15.6672c-0.4096-0.3072-0.8192-0.7168-1.2288-1.1264a6.18496 6.18496 0 0 0-8.8064 0c-0.4096 0.4096-0.8192 0.8192-1.3312 1.1264l-19.968 15.7696a39.08608 39.08608 0 0 1-48.5376 0l-19.968-15.7696c-0.4096-0.4096-0.9216-0.7168-1.3312-1.1264a5.71392 5.71392 0 0 0-2.9696-1.6384c-8.2944-1.8432-13.4144-10.1376-11.5712-18.432 1.8432-8.2944 10.1376-13.4144 18.3296-11.5712 6.4512 1.4336 12.3904 4.608 17.2032 9.216l19.3536 15.36c3.072 2.4576 7.2704 2.4576 10.3424 0l19.3536-15.36c14.2336-13.4144 36.6592-13.4144 50.7904 0l19.0464 15.2576c2.9696 2.3552 7.3728 2.3552 10.3424 0l19.0464-15.2576c14.2336-13.4144 36.6592-13.4144 50.7904 0l19.0464 15.2576c3.072 2.4576 7.3728 2.4576 10.4448 0l19.0464-15.2576a37.07904 37.07904 0 0 1 50.7904 0l19.456 15.36c3.072 2.4576 7.2704 2.4576 10.3424 0l20.0704-15.872c6.656-5.2224 16.2816-4.096 21.6064 2.56 5.2224 6.656 4.096 16.2816-2.56 21.6064l-20.0704 15.872c-7.168 5.5296-15.6672 8.2944-24.2688 8.2944z" fill="#8a8a8a" p-id="2486"></path><path d="M418.5088 558.8992c-3.3792 0-6.8608-1.1264-9.728-3.4816-6.5536-5.4272-7.4752-15.0528-2.1504-21.6064l81.8176-99.6352c5.4272-6.5536 15.0528-7.4752 21.6064-2.1504 6.5536 5.4272 7.4752 15.0528 2.1504 21.6064l-81.8176 99.6352c-2.9696 3.7888-7.3728 5.632-11.8784 5.632zM350.3104 579.072c-3.3792 0-6.8608-1.1264-9.728-3.4816-6.5536-5.4272-7.4752-15.0528-2.1504-21.6064l98.304-119.808c5.4272-6.5536 15.0528-7.4752 21.6064-2.1504 6.5536 5.4272 7.4752 15.0528 2.1504 21.6064L362.1888 573.44c-3.072 3.6864-7.4752 5.632-11.8784 5.632zM418.2016 719.2576c-24.8832 0-45.1584-20.1728-45.1584-45.056 0-24.7808 20.2752-45.056 45.1584-45.056s45.1584 20.1728 45.1584 45.056c-0.1024 24.7808-20.2752 45.056-45.1584 45.056z m0-59.392c-7.9872 0-14.4384 6.4512-14.4384 14.336s6.4512 14.336 14.4384 14.336 14.4384-6.4512 14.4384-14.336-6.5536-14.336-14.4384-14.336zM522.3424 745.0624c-24.8832 0-45.1584-20.1728-45.1584-45.056s20.2752-45.056 45.1584-45.056 45.1584 20.1728 45.1584 45.056-20.2752 45.056-45.1584 45.056z m0-59.392c-7.9872 0-14.4384 6.4512-14.4384 14.336s6.4512 14.336 14.4384 14.336 14.4384-6.4512 14.4384-14.336-6.4512-14.336-14.4384-14.336zM545.28 849.1008c-24.8832 0-45.1584-20.1728-45.1584-45.056 0-24.7808 20.2752-45.056 45.1584-45.056s45.1584 20.1728 45.1584 45.056c0 24.8832-20.2752 45.056-45.1584 45.056z m0-59.2896c-7.9872 0-14.4384 6.4512-14.4384 14.336s6.4512 14.336 14.4384 14.336 14.4384-6.4512 14.4384-14.336-6.4512-14.336-14.4384-14.336z" fill="#8a8a8a" p-id="2487"></path><path d="M455.7824 784.384c-20.0704 0-36.4544-16.2816-36.4544-36.352s16.2816-36.352 36.4544-36.352a36.352 36.352 0 0 1 0 72.704z m0-41.8816c-3.1744 0-5.7344 2.56-5.7344 5.632s2.56 5.632 5.7344 5.632c3.1744 0 5.632-2.56 5.632-5.632s-2.4576-5.632-5.632-5.632z" fill="#8a8a8a" p-id="2488"></path><path d="M398.2336 833.024a36.4544 36.4544 0 0 1-36.4544-36.352c0-20.0704 16.2816-36.352 36.4544-36.352a36.352 36.352 0 0 1 0 72.704z m0-41.8816c-3.1744 0-5.7344 2.56-5.7344 5.632 0 3.072 2.56 5.632 5.7344 5.632 3.1744 0 5.632-2.56 5.632-5.632 0-3.1744-2.4576-5.632-5.632-5.632zM466.0224 861.3888a36.352 36.352 0 0 1 0-72.704 36.4544 36.4544 0 0 1 36.4544 36.352 36.51584 36.51584 0 0 1-36.4544 36.352z m0-41.8816c-3.1744 0-5.632 2.56-5.632 5.632a5.6832 5.6832 0 0 0 11.3664 0 5.70368 5.70368 0 0 0-5.7344-5.632zM608.9728 786.944c-2.048 0-4.1984-0.2048-6.3488-0.512-9.5232-1.7408-17.92-6.9632-23.4496-14.9504-5.5296-7.9872-7.68-17.6128-6.0416-27.136 3.4816-19.7632 22.4256-32.8704 42.1888-29.4912 9.5232 1.7408 17.92 6.9632 23.4496 14.9504 5.5296 7.9872 7.68 17.6128 6.0416 27.136-3.072 17.6128-18.432 30.0032-35.84 30.0032z m0-41.8816c-2.6624 0-5.12 1.9456-5.632 4.608-0.3072 1.9456 0.4096 3.4816 0.9216 4.1984 0.512 0.7168 1.6384 1.9456 3.6864 2.3552 3.1744 0.6144 6.0416-1.536 6.5536-4.5056a5.81632 5.81632 0 0 0-0.9216-4.1984 5.87776 5.87776 0 0 0-3.6864-2.3552c-0.2048-0.1024-0.6144-0.1024-0.9216-0.1024z m20.7872 9.216zM624.64 861.3888c-2.048 0-4.1984-0.2048-6.3488-0.512-9.5232-1.7408-17.92-6.9632-23.4496-14.9504-5.5296-7.9872-7.68-17.6128-6.0416-27.136 3.4816-19.7632 22.4256-32.8704 42.1888-29.4912 9.5232 1.7408 17.92 6.9632 23.4496 14.9504 5.5296 7.9872 7.68 17.6128 6.0416 27.136-3.072 17.6128-18.5344 30.0032-35.84 30.0032z m0-41.8816c-2.6624 0-5.12 1.9456-5.632 4.608-0.3072 1.9456 0.4096 3.4816 0.9216 4.1984 0.512 0.7168 1.6384 1.9456 3.6864 2.3552 3.1744 0.6144 6.0416-1.536 6.5536-4.5056a5.81632 5.81632 0 0 0-0.9216-4.1984 5.87776 5.87776 0 0 0-3.6864-2.3552c-0.3072-0.1024-0.6144-0.1024-0.9216-0.1024z m20.6848 9.216z" fill="#8a8a8a" p-id="2489"></path></svg>