<?xml version="1.0" standalone="no"?><!DOCTYPE svg PUBLIC "-//W3C//DTD SVG 1.1//EN" "http://www.w3.org/Graphics/SVG/1.1/DTD/svg11.dtd"><svg t="1615049703923" class="icon" viewBox="0 0 1024 1024" version="1.1" xmlns="http://www.w3.org/2000/svg" p-id="6018" xmlns:xlink="http://www.w3.org/1999/xlink" width="200" height="200"><defs><style type="text/css"></style></defs><path d="M774.144 734.72c-35.328 60.416-99.84 93.696-176.64 74.752-1.024 29.696-12.288 54.784-36.352 72.704-15.36 11.264-33.28 16.896-51.712 15.872-47.616-1.536-75.264-30.72-85.504-88.064-74.752 15.36-132.608-8.704-173.056-72.192-17.92 3.584-35.84 9.216-53.76 10.752-63.488 5.12-107.52-28.16-122.88-90.112-12.288-49.152-7.68-98.816 5.12-146.944 34.304-130.048 102.4-238.08 213.504-315.392 146.944-102.912 333.312-93.184 471.552 24.576 101.376 86.528 164.352 196.096 188.416 327.168 6.144 34.816 6.656 70.144-1.024 104.96-20.48 94.72-100.864 110.592-166.4 86.016-3.584-0.512-7.168-2.048-11.264-4.096z m-235.008-46.592c11.776 41.984 46.592 71.68 90.112 76.288 42.496 4.096 82.432-17.92 102.912-55.296 3.072-6.144 3.072-10.752 0.512-17.92-6.144-16.384-14.336-33.792-14.848-51.2-2.048-86.016-2.048-172.032-2.56-258.048 0-15.872 8.704-24.576 23.04-24.064 13.824 0.512 20.992 8.704 20.992 24.576l1.536 240.64c0 6.144 0 12.288 0.512 18.432 1.536 15.872 7.168 30.208 19.456 40.96 40.448 36.864 104.96 19.456 120.32-32.768 8.704-30.208 8.704-60.928 3.584-91.136-20.48-117.248-75.776-216.064-164.352-295.424-119.296-106.496-277.504-121.344-408.064-36.352-117.76 76.8-184.832 188.416-211.968 324.608-6.656 33.792-7.168 68.608 4.096 101.888 8.192 23.552 22.528 40.96 48.128 46.08 54.784 10.752 92.16-19.456 92.16-75.264V614.4c0-76.8 0-153.088 0.512-229.888 0-17.92 8.192-27.136 23.04-26.624 14.336 0 21.504 9.216 22.016 26.624 0 12.8-0.512 25.6-0.512 37.888 0 69.12-0.512 138.24-0.512 207.36 0 22.528-5.12 43.52-16.384 63.488-2.048 4.096-2.56 11.264-0.512 15.36 29.696 59.904 111.104 75.264 160.768 30.72 16.384-14.848 28.16-32.256 32.256-50.688-14.336-13.312-26.624-25.088-39.424-36.864-15.36-14.336-17.92-31.744-12.288-50.688 5.632-19.968 19.456-33.792 39.424-35.84 25.6-2.56 51.712-2.048 77.312 0 19.456 1.536 32.256 15.36 38.4 33.792 5.632 16.896 5.632 33.792-7.168 47.616-11.776 14.336-26.624 26.624-42.496 41.472z m-50.176 85.504c-18.944 13.312-24.064 30.208-16.384 51.712 6.144 17.92 23.552 29.184 41.472 27.648 18.944-1.536 33.28-14.336 37.376-33.28 5.632-26.112 2.56-35.328-15.872-45.056-1.024 9.216-0.512 18.944-2.56 27.648-2.56 10.24-11.264 14.848-21.504 14.848-15.36 0.512-19.968-8.192-22.528-43.52z" fill="#333333" p-id="6019"></path><path d="M391.168 496.64c-20.992 0-37.376-16.896-36.864-37.376 0.512-20.48 17.92-36.864 38.4-36.352 19.968 0.512 35.84 16.896 35.84 37.376 0.512 20.48-15.872 36.352-37.376 36.352zM673.792 464.896c0 20.48-15.872 36.864-36.352 36.864-20.992 0-37.888-16.384-37.376-37.376 0.512-20.48 16.384-36.864 36.864-36.864 20.992-0.512 36.864 15.872 36.864 37.376z" fill="#333333" p-id="6020"></path></svg>