<?xml version="1.0" standalone="no"?><!DOCTYPE svg PUBLIC "-//W3C//DTD SVG 1.1//EN" "http://www.w3.org/Graphics/SVG/1.1/DTD/svg11.dtd"><svg t="1615049624740" class="icon" viewBox="0 0 1024 1024" version="1.1" xmlns="http://www.w3.org/2000/svg" p-id="2125" xmlns:xlink="http://www.w3.org/1999/xlink" width="200" height="200"><defs><style type="text/css"></style></defs><path d="M544 224v64h64c35.346 0 64-28.654 64-64 0-35.346-28.654-64-64-64-35.346 0-64 28.654-64 64z m0 128v96h320v-96H544z m0 160v352h256V512H544z m-64 352V512H224v352h256z m0-416v-96H160v96h320z m0-160v-64c0-35.346-28.654-64-64-64-35.346 0-64 28.654-64 64 0 35.346 28.654 64 64 64h64z m384 224v352c0 35.346-28.654 64-64 64H224c-35.346 0-64-28.654-64-64V512h-32c-17.673 0-32-14.327-32-32V320c0-17.673 14.327-32 32-32h177.124C294.234 269.173 288 247.314 288 224c0-70.692 57.308-128 128-128 38.23 0 72.546 16.76 96 43.334C535.454 112.76 569.77 96 608 96c70.692 0 128 57.308 128 128 0 23.314-6.233 45.173-17.124 64H896c17.673 0 32 14.327 32 32v160c0 17.673-14.327 32-32 32h-32z" p-id="2126"></path></svg>