<?xml version="1.0" standalone="no"?><!DOCTYPE svg PUBLIC "-//W3C//DTD SVG 1.1//EN" "http://www.w3.org/Graphics/SVG/1.1/DTD/svg11.dtd"><svg t="1615049593316" class="icon" viewBox="0 0 1024 1024" version="1.1" xmlns="http://www.w3.org/2000/svg" p-id="3895" xmlns:xlink="http://www.w3.org/1999/xlink" width="200" height="200"><defs><style type="text/css"></style></defs><path d="M859.3 420.3L510.6 118.7c-4.7-4.7-14.1-4.7-18.8 0L143 420.3c-4.7 4.7-4.7 14.1 0 23.6 4.7 0 14.1 4.7 18.8 0l23.6-18.8v433.5h4.7c0 4.7 0 9.4 4.7 9.4 0-4.7 4.7 0 9.4 0h584.3c4.7 0 4.7 0 9.4-4.7s4.7-4.7 4.7-9.4V420.3l37.7 23.6c4.7 4.7 14.1 4.7 18.8 0 9.6-9.5 9.6-18.9 0.2-23.6z m-344 150.8h99c9.4 0 18.8 9.4 18.8 18.9 0 9.4-9.4 18.8-18.8 18.8H520v51.8h94.2c9.4 0 18.8 9.4 18.8 18.8s-9.4 18.9-18.8 18.9H520v61.3c0 9.4-9.4 18.9-18.8 18.9s-23.6-4.7-23.6-14.1V703h-94.2c-14.1 0-23.6-9.4-23.6-23.6s9.4-18.8 18.9-18.8h94.2v-51.8h-94.2c-9.4 0-18.9-9.4-18.9-18.8s9.4-18.9 18.9-18.9h99v-4.7s-4.7 0-4.7-4.7l-70.7-84.8c-4.7-9.4-4.7-18.9 4.7-28.3 4.7-4.7 18.8-4.7 28.3 4.7l66 75.4 66-75.4c4.7-9.4 14.1-9.4 23.6-4.7 9.4 9.4 9.4 18.9 4.7 28.3L520 566.3l-4.7 4.8z m0 0" p-id="3896"></path></svg>