<?xml version="1.0" standalone="no"?><!DOCTYPE svg PUBLIC "-//W3C//DTD SVG 1.1//EN" "http://www.w3.org/Graphics/SVG/1.1/DTD/svg11.dtd"><svg t="1614006997376" class="icon" viewBox="0 0 1024 1024" version="1.1" xmlns="http://www.w3.org/2000/svg" p-id="6282" xmlns:xlink="http://www.w3.org/1999/xlink" width="200" height="200"><defs><style type="text/css"></style></defs><path d="M827.733333 928H196.266667c-40.533333 0-74.666667-34.133333-74.666667-74.666667v-8.533333l51.2-490.666667c4.266667-38.4 36.266667-66.133333 74.666667-66.133333h526.933333c38.4 0 70.4 27.733333 74.666667 66.133333l51.2 490.666667c4.266667 40.533333-25.6 76.8-66.133334 81.066667-2.133333 2.133333-4.266667 2.133333-6.4 2.133333z m-580.266666-576c-6.4 0-10.666667 4.266667-10.666667 8.533333l-51.2 490.666667c0 6.4 4.266667 12.8 10.666667 12.8h631.466666c6.4 0 10.666667-6.4 8.533334-10.666667l-51.2-490.666666c0-6.4-4.266667-8.533333-10.666667-8.533334H247.466667z" fill="#515151" p-id="6283"></path><path d="M693.333333 426.666667h-64v-149.333334c0-64-53.333333-117.333333-117.333333-117.333333S394.666667 213.333333 394.666667 277.333333v149.333334h-64v-149.333334c0-100.266667 81.066667-181.333333 181.333333-181.333333s181.333333 81.066667 181.333333 181.333333v149.333334z" fill="#515151" p-id="6284"></path></svg>