<?xml version="1.0" standalone="no"?><!DOCTYPE svg PUBLIC "-//W3C//DTD SVG 1.1//EN" "http://www.w3.org/Graphics/SVG/1.1/DTD/svg11.dtd"><svg t="1614005094803" class="icon" viewBox="0 0 1024 1024" version="1.1" xmlns="http://www.w3.org/2000/svg" p-id="5328" xmlns:xlink="http://www.w3.org/1999/xlink" width="200" height="200"><defs><style type="text/css"></style></defs><path d="M896 382.4h-24C833.6 219.2 686.4 97.6 512 97.6S190.4 219.2 152 382.4H126.4c-35.2 6.4-59.2 38.4-52.8 73.6C102.4 630.4 174.4 740.8 288 787.2v43.2c0 52.8 43.2 96 96 96h256c52.8 0 96-43.2 96-96v-43.2c113.6-46.4 185.6-156.8 214.4-331.2v-4.8c3.2-33.6-20.8-64-54.4-68.8zM513.6 145.6c148.8 0 275.2 99.2 313.6 236.8H198.4c40-136 164.8-236.8 315.2-236.8z m166.4 688c0 22.4-14.4 40-33.6 40H380.8c-17.6 0-33.6-17.6-33.6-40v-40h332.8v40z m22.4-89.6H324.8C220.8 710.4 153.6 608 124.8 436.8h774.4c-25.6 171.2-91.2 272-196.8 307.2z" p-id="5329"></path></svg>